<svg width="113" height="96" viewBox="0 0 113 96" fill="none" xmlns="http://www.w3.org/2000/svg">
<g opacity="0.26">
<mask id="mask0_1_148" style="mask-type:alpha" maskUnits="userSpaceOnUse" x="11" y="0" width="11" height="11">
<path d="M21.2378 5.21245C21.2378 7.81364 19.1223 9.92496 16.5095 9.92496C13.8966 9.92496 11.7811 7.81364 11.7811 5.21245C11.7811 2.61127 13.8966 0.5 16.5095 0.5C19.1223 0.5 21.2378 2.61127 21.2378 5.21245Z" fill="url(#paint0_linear_1_148)" stroke="black"/>
</mask>
<g mask="url(#mask0_1_148)">
<path d="M21.2378 5.21245C21.2378 7.81364 19.1223 9.92496 16.5095 9.92496C13.8966 9.92496 11.7811 7.81364 11.7811 5.21245C11.7811 2.61127 13.8966 0.5 16.5095 0.5C19.1223 0.5 21.2378 2.61127 21.2378 5.21245Z" fill="url(#paint1_linear_1_148)" stroke="black"/>
</g>
<mask id="mask1_1_148" style="mask-type:alpha" maskUnits="userSpaceOnUse" x="41" y="0" width="12" height="11">
<path d="M51.5189 5.21245C51.5189 7.81364 49.4034 9.92496 46.7905 9.92496C44.1777 9.92496 42.0621 7.81364 42.0621 5.21245C42.0621 2.61127 44.1777 0.5 46.7905 0.5C49.4034 0.5 51.5189 2.61127 51.5189 5.21245Z" fill="url(#paint2_linear_1_148)" stroke="black"/>
</mask>
<g mask="url(#mask1_1_148)">
<path d="M51.5189 5.21245C51.5189 7.81364 49.4034 9.92496 46.7905 9.92496C44.1777 9.92496 42.0621 7.81364 42.0621 5.21245C42.0621 2.61127 44.1777 0.5 46.7905 0.5C49.4034 0.5 51.5189 2.61127 51.5189 5.21245Z" fill="url(#paint3_linear_1_148)" stroke="black"/>
</g>
<mask id="mask2_1_148" style="mask-type:alpha" maskUnits="userSpaceOnUse" x="71" y="0" width="12" height="11">
<path d="M81.8 5.21245C81.8 7.81364 79.6845 9.92496 77.0716 9.92496C74.4587 9.92496 72.3432 7.81363 72.3432 5.21245C72.3432 2.61127 74.4587 0.5 77.0716 0.5C79.6845 0.5 81.8 2.61126 81.8 5.21245Z" fill="url(#paint4_linear_1_148)" stroke="black"/>
</mask>
<g mask="url(#mask2_1_148)">
<path d="M81.8 5.21245C81.8 7.81364 79.6845 9.92496 77.0716 9.92496C74.4587 9.92496 72.3432 7.81363 72.3432 5.21245C72.3432 2.61127 74.4587 0.5 77.0716 0.5C79.6845 0.5 81.8 2.61126 81.8 5.21245Z" fill="url(#paint5_linear_1_148)" stroke="black"/>
</g>
<mask id="mask3_1_148" style="mask-type:alpha" maskUnits="userSpaceOnUse" x="102" y="0" width="11" height="11">
<path d="M112.081 5.21245C112.081 7.81363 109.966 9.92496 107.353 9.92496C104.74 9.92496 102.624 7.81364 102.624 5.21245C102.624 2.61126 104.74 0.5 107.353 0.5C109.966 0.5 112.081 2.61127 112.081 5.21245Z" fill="url(#paint6_linear_1_148)" stroke="black"/>
</mask>
<g mask="url(#mask3_1_148)">
<path d="M112.081 5.21245C112.081 7.81363 109.966 9.92496 107.353 9.92496C104.74 9.92496 102.624 7.81364 102.624 5.21245C102.624 2.61126 104.74 0.5 107.353 0.5C109.966 0.5 112.081 2.61127 112.081 5.21245Z" fill="url(#paint7_linear_1_148)" stroke="black"/>
</g>
<mask id="mask4_1_148" style="mask-type:alpha" maskUnits="userSpaceOnUse" x="11" y="26" width="11" height="11">
<path d="M21.2378 31.3833C21.2378 33.9845 19.1223 36.0958 16.5095 36.0958C13.8966 36.0958 11.7811 33.9845 11.7811 31.3833C11.7811 28.7822 13.8966 26.6709 16.5095 26.6709C19.1223 26.6709 21.2378 28.7822 21.2378 31.3833Z" fill="url(#paint8_linear_1_148)" stroke="black"/>
</mask>
<g mask="url(#mask4_1_148)">
<path d="M21.2378 31.3833C21.2378 33.9845 19.1223 36.0958 16.5095 36.0958C13.8966 36.0958 11.7811 33.9845 11.7811 31.3833C11.7811 28.7822 13.8966 26.6709 16.5095 26.6709C19.1223 26.6709 21.2378 28.7822 21.2378 31.3833Z" fill="url(#paint9_linear_1_148)" stroke="black"/>
</g>
<mask id="mask5_1_148" style="mask-type:alpha" maskUnits="userSpaceOnUse" x="41" y="26" width="12" height="11">
<path d="M51.5189 31.3833C51.5189 33.9845 49.4034 36.0958 46.7905 36.0958C44.1777 36.0958 42.0621 33.9845 42.0621 31.3833C42.0621 28.7822 44.1777 26.6709 46.7905 26.6709C49.4034 26.6709 51.5189 28.7822 51.5189 31.3833Z" fill="url(#paint10_linear_1_148)" stroke="black"/>
</mask>
<g mask="url(#mask5_1_148)">
<path d="M51.5189 31.3833C51.5189 33.9845 49.4034 36.0958 46.7905 36.0958C44.1777 36.0958 42.0621 33.9845 42.0621 31.3833C42.0621 28.7822 44.1777 26.6709 46.7905 26.6709C49.4034 26.6709 51.5189 28.7822 51.5189 31.3833Z" fill="url(#paint11_linear_1_148)" stroke="black"/>
</g>
<mask id="mask6_1_148" style="mask-type:alpha" maskUnits="userSpaceOnUse" x="71" y="26" width="12" height="11">
<path d="M81.8 31.3833C81.8 33.9845 79.6845 36.0958 77.0716 36.0958C74.4587 36.0958 72.3432 33.9845 72.3432 31.3833C72.3432 28.7822 74.4587 26.6709 77.0716 26.6709C79.6845 26.6709 81.8 28.7822 81.8 31.3833Z" fill="url(#paint12_linear_1_148)" stroke="black"/>
</mask>
<g mask="url(#mask6_1_148)">
<path d="M81.8 31.3833C81.8 33.9845 79.6845 36.0958 77.0716 36.0958C74.4587 36.0958 72.3432 33.9845 72.3432 31.3833C72.3432 28.7822 74.4587 26.6709 77.0716 26.6709C79.6845 26.6709 81.8 28.7822 81.8 31.3833Z" fill="url(#paint13_linear_1_148)" stroke="black"/>
</g>
<mask id="mask7_1_148" style="mask-type:alpha" maskUnits="userSpaceOnUse" x="102" y="26" width="11" height="11">
<path d="M112.081 31.3833C112.081 33.9845 109.966 36.0958 107.353 36.0958C104.74 36.0958 102.624 33.9845 102.624 31.3833C102.624 28.7822 104.74 26.6709 107.353 26.6709C109.966 26.6709 112.081 28.7822 112.081 31.3833Z" fill="url(#paint14_linear_1_148)" stroke="black"/>
</mask>
<g mask="url(#mask7_1_148)">
<path d="M112.081 31.3833C112.081 33.9845 109.966 36.0958 107.353 36.0958C104.74 36.0958 102.624 33.9845 102.624 31.3833C102.624 28.7822 104.74 26.6709 107.353 26.6709C109.966 26.6709 112.081 28.7822 112.081 31.3833Z" fill="url(#paint15_linear_1_148)" stroke="black"/>
</g>
<mask id="mask8_1_148" style="mask-type:alpha" maskUnits="userSpaceOnUse" x="11" y="52" width="11" height="11">
<path d="M21.2378 57.5001C21.2378 60.1013 19.1223 62.2126 16.5095 62.2126C13.8966 62.2126 11.7811 60.1013 11.7811 57.5001C11.7811 54.8989 13.8966 52.7876 16.5095 52.7876C19.1223 52.7876 21.2378 54.8989 21.2378 57.5001Z" fill="url(#paint16_linear_1_148)" stroke="black"/>
</mask>
<g mask="url(#mask8_1_148)">
<path d="M21.2378 57.5001C21.2378 60.1013 19.1223 62.2126 16.5095 62.2126C13.8966 62.2126 11.7811 60.1013 11.7811 57.5001C11.7811 54.8989 13.8966 52.7876 16.5095 52.7876C19.1223 52.7876 21.2378 54.8989 21.2378 57.5001Z" fill="url(#paint17_linear_1_148)" stroke="black"/>
</g>
<mask id="mask9_1_148" style="mask-type:alpha" maskUnits="userSpaceOnUse" x="41" y="52" width="12" height="11">
<path d="M51.5189 57.5001C51.5189 60.1013 49.4034 62.2126 46.7905 62.2126C44.1777 62.2126 42.0621 60.1013 42.0621 57.5001C42.0621 54.8989 44.1777 52.7876 46.7905 52.7876C49.4034 52.7876 51.5189 54.8989 51.5189 57.5001Z" fill="url(#paint18_linear_1_148)" stroke="black"/>
</mask>
<g mask="url(#mask9_1_148)">
<path d="M51.5189 57.5001C51.5189 60.1013 49.4034 62.2126 46.7905 62.2126C44.1777 62.2126 42.0621 60.1013 42.0621 57.5001C42.0621 54.8989 44.1777 52.7876 46.7905 52.7876C49.4034 52.7876 51.5189 54.8989 51.5189 57.5001Z" fill="url(#paint19_linear_1_148)" stroke="black"/>
</g>
<mask id="mask10_1_148" style="mask-type:alpha" maskUnits="userSpaceOnUse" x="71" y="52" width="12" height="11">
<path d="M81.8 57.5001C81.8 60.1013 79.6845 62.2126 77.0716 62.2126C74.4587 62.2126 72.3432 60.1013 72.3432 57.5001C72.3432 54.8989 74.4587 52.7876 77.0716 52.7876C79.6845 52.7876 81.8 54.8989 81.8 57.5001Z" fill="url(#paint20_linear_1_148)" stroke="black"/>
</mask>
<g mask="url(#mask10_1_148)">
<path d="M81.8 57.5001C81.8 60.1013 79.6845 62.2126 77.0716 62.2126C74.4587 62.2126 72.3432 60.1013 72.3432 57.5001C72.3432 54.8989 74.4587 52.7876 77.0716 52.7876C79.6845 52.7876 81.8 54.8989 81.8 57.5001Z" fill="url(#paint21_linear_1_148)" stroke="black"/>
</g>
<mask id="mask11_1_148" style="mask-type:alpha" maskUnits="userSpaceOnUse" x="102" y="52" width="11" height="11">
<path d="M112.081 57.5001C112.081 60.1013 109.966 62.2126 107.353 62.2126C104.74 62.2126 102.624 60.1013 102.624 57.5001C102.624 54.8989 104.74 52.7876 107.353 52.7876C109.966 52.7876 112.081 54.8989 112.081 57.5001Z" fill="url(#paint22_linear_1_148)" stroke="black"/>
</mask>
<g mask="url(#mask11_1_148)">
<path d="M112.081 57.5001C112.081 60.1013 109.966 62.2126 107.353 62.2126C104.74 62.2126 102.624 60.1013 102.624 57.5001C102.624 54.8989 104.74 52.7876 107.353 52.7876C109.966 52.7876 112.081 54.8989 112.081 57.5001Z" fill="url(#paint23_linear_1_148)" stroke="black"/>
</g>
<mask id="mask12_1_148" style="mask-type:alpha" maskUnits="userSpaceOnUse" x="11" y="78" width="11" height="11">
<path d="M21.2378 83.6709C21.2378 86.2721 19.1223 88.3835 16.5095 88.3835C13.8966 88.3835 11.7811 86.2721 11.7811 83.6709C11.7811 81.0698 13.8966 78.9585 16.5095 78.9585C19.1223 78.9585 21.2378 81.0698 21.2378 83.6709Z" fill="url(#paint24_linear_1_148)" stroke="black"/>
</mask>
<g mask="url(#mask12_1_148)">
<path d="M21.2378 83.6709C21.2378 86.2721 19.1223 88.3835 16.5095 88.3835C13.8966 88.3835 11.7811 86.2721 11.7811 83.6709C11.7811 81.0698 13.8966 78.9585 16.5095 78.9585C19.1223 78.9585 21.2378 81.0698 21.2378 83.6709Z" fill="url(#paint25_linear_1_148)" stroke="black"/>
</g>
<mask id="mask13_1_148" style="mask-type:alpha" maskUnits="userSpaceOnUse" x="41" y="78" width="12" height="11">
<path d="M51.5189 83.6709C51.5189 86.2721 49.4034 88.3835 46.7905 88.3835C44.1777 88.3835 42.0621 86.2721 42.0621 83.6709C42.0621 81.0698 44.1777 78.9585 46.7905 78.9585C49.4034 78.9585 51.5189 81.0698 51.5189 83.6709Z" fill="url(#paint26_linear_1_148)" stroke="black"/>
</mask>
<g mask="url(#mask13_1_148)">
<path d="M51.5189 83.6709C51.5189 86.2721 49.4034 88.3835 46.7905 88.3835C44.1777 88.3835 42.0621 86.2721 42.0621 83.6709C42.0621 81.0698 44.1777 78.9585 46.7905 78.9585C49.4034 78.9585 51.5189 81.0698 51.5189 83.6709Z" fill="url(#paint27_linear_1_148)" stroke="black"/>
</g>
<mask id="mask14_1_148" style="mask-type:alpha" maskUnits="userSpaceOnUse" x="71" y="78" width="12" height="11">
<path d="M81.8 83.6709C81.8 86.2721 79.6845 88.3835 77.0716 88.3835C74.4587 88.3835 72.3432 86.2721 72.3432 83.6709C72.3432 81.0698 74.4587 78.9585 77.0716 78.9585C79.6845 78.9585 81.8 81.0698 81.8 83.6709Z" fill="url(#paint28_linear_1_148)" stroke="black"/>
</mask>
<g mask="url(#mask14_1_148)">
<path d="M81.8 83.6709C81.8 86.2721 79.6845 88.3835 77.0716 88.3835C74.4587 88.3835 72.3432 86.2721 72.3432 83.6709C72.3432 81.0698 74.4587 78.9585 77.0716 78.9585C79.6845 78.9585 81.8 81.0698 81.8 83.6709Z" fill="url(#paint29_linear_1_148)" stroke="black"/>
</g>
<mask id="mask15_1_148" style="mask-type:alpha" maskUnits="userSpaceOnUse" x="102" y="78" width="11" height="11">
<path d="M112.081 83.6709C112.081 86.2721 109.966 88.3835 107.353 88.3835C104.74 88.3835 102.624 86.2721 102.624 83.6709C102.624 81.0698 104.74 78.9585 107.353 78.9585C109.966 78.9585 112.081 81.0698 112.081 83.6709Z" fill="url(#paint30_linear_1_148)" stroke="black"/>
</mask>
<g mask="url(#mask15_1_148)">
<path d="M112.081 83.6709C112.081 86.2721 109.966 88.3835 107.353 88.3835C104.74 88.3835 102.624 86.2721 102.624 83.6709C102.624 81.0698 104.74 78.9585 107.353 78.9585C109.966 78.9585 112.081 81.0698 112.081 83.6709Z" fill="url(#paint31_linear_1_148)" stroke="black"/>
</g>
</g>
<defs>
<linearGradient id="paint0_linear_1_148" x1="66.2771" y1="131.134" x2="-5.12449" y2="-50.67" gradientUnits="userSpaceOnUse">
<stop stop-color="white"/>
<stop offset="1" stop-color="white"/>
</linearGradient>
<linearGradient id="paint1_linear_1_148" x1="66.2771" y1="131.134" x2="-5.12449" y2="-50.67" gradientUnits="userSpaceOnUse">
<stop stop-color="white"/>
<stop offset="1" stop-color="white"/>
</linearGradient>
<linearGradient id="paint2_linear_1_148" x1="96.5582" y1="131.134" x2="25.1566" y2="-50.67" gradientUnits="userSpaceOnUse">
<stop stop-color="white"/>
<stop offset="1" stop-color="white"/>
</linearGradient>
<linearGradient id="paint3_linear_1_148" x1="96.5582" y1="131.134" x2="25.1566" y2="-50.67" gradientUnits="userSpaceOnUse">
<stop stop-color="white"/>
<stop offset="1" stop-color="white"/>
</linearGradient>
<linearGradient id="paint4_linear_1_148" x1="126.839" y1="131.134" x2="55.4376" y2="-50.67" gradientUnits="userSpaceOnUse">
<stop stop-color="white"/>
<stop offset="1" stop-color="white"/>
</linearGradient>
<linearGradient id="paint5_linear_1_148" x1="126.839" y1="131.134" x2="55.4376" y2="-50.67" gradientUnits="userSpaceOnUse">
<stop stop-color="white"/>
<stop offset="1" stop-color="white"/>
</linearGradient>
<linearGradient id="paint6_linear_1_148" x1="157.12" y1="131.134" x2="85.7187" y2="-50.67" gradientUnits="userSpaceOnUse">
<stop stop-color="white"/>
<stop offset="1" stop-color="white"/>
</linearGradient>
<linearGradient id="paint7_linear_1_148" x1="157.12" y1="131.134" x2="85.7187" y2="-50.67" gradientUnits="userSpaceOnUse">
<stop stop-color="white"/>
<stop offset="1" stop-color="white"/>
</linearGradient>
<linearGradient id="paint8_linear_1_148" x1="66.2771" y1="157.303" x2="-5.12327" y2="-24.4991" gradientUnits="userSpaceOnUse">
<stop stop-color="white"/>
<stop offset="1" stop-color="white"/>
</linearGradient>
<linearGradient id="paint9_linear_1_148" x1="66.2771" y1="157.303" x2="-5.12327" y2="-24.4991" gradientUnits="userSpaceOnUse">
<stop stop-color="white"/>
<stop offset="1" stop-color="white"/>
</linearGradient>
<linearGradient id="paint10_linear_1_148" x1="96.5582" y1="157.303" x2="25.1578" y2="-24.4991" gradientUnits="userSpaceOnUse">
<stop stop-color="white"/>
<stop offset="1" stop-color="white"/>
</linearGradient>
<linearGradient id="paint11_linear_1_148" x1="96.5582" y1="157.303" x2="25.1578" y2="-24.4991" gradientUnits="userSpaceOnUse">
<stop stop-color="white"/>
<stop offset="1" stop-color="white"/>
</linearGradient>
<linearGradient id="paint12_linear_1_148" x1="126.839" y1="157.303" x2="55.4389" y2="-24.4991" gradientUnits="userSpaceOnUse">
<stop stop-color="white"/>
<stop offset="1" stop-color="white"/>
</linearGradient>
<linearGradient id="paint13_linear_1_148" x1="126.839" y1="157.303" x2="55.4389" y2="-24.4991" gradientUnits="userSpaceOnUse">
<stop stop-color="white"/>
<stop offset="1" stop-color="white"/>
</linearGradient>
<linearGradient id="paint14_linear_1_148" x1="157.12" y1="157.303" x2="85.7199" y2="-24.4991" gradientUnits="userSpaceOnUse">
<stop stop-color="white"/>
<stop offset="1" stop-color="white"/>
</linearGradient>
<linearGradient id="paint15_linear_1_148" x1="157.12" y1="157.303" x2="85.7199" y2="-24.4991" gradientUnits="userSpaceOnUse">
<stop stop-color="white"/>
<stop offset="1" stop-color="white"/>
</linearGradient>
<linearGradient id="paint16_linear_1_148" x1="66.2771" y1="183.421" x2="-5.12449" y2="1.61756" gradientUnits="userSpaceOnUse">
<stop stop-color="white"/>
<stop offset="1" stop-color="white"/>
</linearGradient>
<linearGradient id="paint17_linear_1_148" x1="66.2771" y1="183.421" x2="-5.12449" y2="1.61756" gradientUnits="userSpaceOnUse">
<stop stop-color="white"/>
<stop offset="1" stop-color="white"/>
</linearGradient>
<linearGradient id="paint18_linear_1_148" x1="96.5582" y1="183.421" x2="25.1566" y2="1.61756" gradientUnits="userSpaceOnUse">
<stop stop-color="white"/>
<stop offset="1" stop-color="white"/>
</linearGradient>
<linearGradient id="paint19_linear_1_148" x1="96.5582" y1="183.421" x2="25.1566" y2="1.61756" gradientUnits="userSpaceOnUse">
<stop stop-color="white"/>
<stop offset="1" stop-color="white"/>
</linearGradient>
<linearGradient id="paint20_linear_1_148" x1="126.839" y1="183.421" x2="55.4376" y2="1.61756" gradientUnits="userSpaceOnUse">
<stop stop-color="white"/>
<stop offset="1" stop-color="white"/>
</linearGradient>
<linearGradient id="paint21_linear_1_148" x1="126.839" y1="183.421" x2="55.4376" y2="1.61756" gradientUnits="userSpaceOnUse">
<stop stop-color="white"/>
<stop offset="1" stop-color="white"/>
</linearGradient>
<linearGradient id="paint22_linear_1_148" x1="157.12" y1="183.421" x2="85.7187" y2="1.61756" gradientUnits="userSpaceOnUse">
<stop stop-color="white"/>
<stop offset="1" stop-color="white"/>
</linearGradient>
<linearGradient id="paint23_linear_1_148" x1="157.12" y1="183.421" x2="85.7187" y2="1.61756" gradientUnits="userSpaceOnUse">
<stop stop-color="white"/>
<stop offset="1" stop-color="white"/>
</linearGradient>
<linearGradient id="paint24_linear_1_148" x1="66.2771" y1="209.592" x2="-5.12449" y2="27.7885" gradientUnits="userSpaceOnUse">
<stop stop-color="white"/>
<stop offset="1" stop-color="white"/>
</linearGradient>
<linearGradient id="paint25_linear_1_148" x1="66.2771" y1="209.592" x2="-5.12449" y2="27.7885" gradientUnits="userSpaceOnUse">
<stop stop-color="white"/>
<stop offset="1" stop-color="white"/>
</linearGradient>
<linearGradient id="paint26_linear_1_148" x1="96.5582" y1="209.592" x2="25.1566" y2="27.7885" gradientUnits="userSpaceOnUse">
<stop stop-color="white"/>
<stop offset="1" stop-color="white"/>
</linearGradient>
<linearGradient id="paint27_linear_1_148" x1="96.5582" y1="209.592" x2="25.1566" y2="27.7885" gradientUnits="userSpaceOnUse">
<stop stop-color="white"/>
<stop offset="1" stop-color="white"/>
</linearGradient>
<linearGradient id="paint28_linear_1_148" x1="126.839" y1="209.592" x2="55.4376" y2="27.7885" gradientUnits="userSpaceOnUse">
<stop stop-color="white"/>
<stop offset="1" stop-color="white"/>
</linearGradient>
<linearGradient id="paint29_linear_1_148" x1="126.839" y1="209.592" x2="55.4376" y2="27.7885" gradientUnits="userSpaceOnUse">
<stop stop-color="white"/>
<stop offset="1" stop-color="white"/>
</linearGradient>
<linearGradient id="paint30_linear_1_148" x1="157.12" y1="209.592" x2="85.7187" y2="27.7885" gradientUnits="userSpaceOnUse">
<stop stop-color="white"/>
<stop offset="1" stop-color="white"/>
</linearGradient>
<linearGradient id="paint31_linear_1_148" x1="157.12" y1="209.592" x2="85.7187" y2="27.7885" gradientUnits="userSpaceOnUse">
<stop stop-color="white"/>
<stop offset="1" stop-color="white"/>
</linearGradient>
</defs>
</svg>
